<svg data-name="그룹 22443" xmlns="http://www.w3.org/2000/svg" width="20" height="20" viewBox="0 0 20 20">
    <defs>
        <clipPath id="t7xafnu2ta">
            <path data-name="사각형 12176" style="fill:none;stroke:#006ed6" d="M0 0h20v20H0z"/>
        </clipPath>
        <clipPath id="vgo8qisv2b">
            <path data-name="사각형 12174" transform="translate(1 1)" style="fill:none;stroke:#006ed6" d="M0 0h18v6H0z"/>
        </clipPath>
    </defs>
    <g data-name="그룹 22442" style="clip-path:url(#t7xafnu2ta)">
        <g data-name="그룹 22441">
            <g data-name="그룹 22440" style="clip-path:url(#t7xafnu2ta)">
                <g data-name="그룹 22439" style="opacity:.12;isolation:isolate">
                    <g data-name="그룹 22438">
                        <g data-name="그룹 22437" style="clip-path:url(#vgo8qisv2b)">
                            <path data-name="패스 98367" d="M19 7V5.8a7.454 7.454 0 0 0-.327-3.162 3.009 3.009 0 0 0-1.311-1.311A7.454 7.454 0 0 0 14.2 1H5.8a7.454 7.454 0 0 0-3.162.327 3.009 3.009 0 0 0-1.311 1.311A7.454 7.454 0 0 0 1 5.8V7z" style="fill:none;stroke:#006ed6"/>
                        </g>
                    </g>
                </g>
                <path data-name="패스 98368" d="M15.5 15h-11m11-4h-11M1 7h18M5.8 1h8.4a7.454 7.454 0 0 1 3.162.327 3.009 3.009 0 0 1 1.311 1.311A7.454 7.454 0 0 1 19 5.8v8.4a7.454 7.454 0 0 1-.327 3.162 3.009 3.009 0 0 1-1.311 1.311A7.454 7.454 0 0 1 14.2 19H5.8a7.454 7.454 0 0 1-3.162-.327 3.009 3.009 0 0 1-1.311-1.311A7.454 7.454 0 0 1 1 14.2V5.8a7.454 7.454 0 0 1 .327-3.162 3.009 3.009 0 0 1 1.311-1.311A7.454 7.454 0 0 1 5.8 1z" style="stroke-linecap:round;stroke-linejoin:round;stroke-width:2px;fill:none;stroke:#006ed6"/>
            </g>
        </g>
    </g>
</svg>
