<svg xmlns="http://www.w3.org/2000/svg" width="74" height="74" viewBox="0 0 74 74">
    <defs>
        <clipPath id="lfbxau4rka">
            <circle data-name="타원 310" cx="37" cy="37" r="37" transform="translate(793 3922)" style="fill:#fff"/>
        </clipPath>
    </defs>
    <g data-name="마스크 그룹 49" transform="translate(-793 -3922)" style="clip-path:url(#lfbxau4rka)">
        <g data-name="humaaans/standing-1">
            <g data-name="Head/Front/Airy">
                <path data-name="패스 95572" d="M1.918 8.007A6.289 6.289 0 0 1 .245 3.488C.594-1.48 7.509-.387 8.855 2.12s1.185 8.868-.553 9.316a6.148 6.148 0 0 1-3.674-1.165l.944 6.675H0z" transform="rotate(-7 32603.121 -4797.855)" style="fill-rule:evenodd;fill:#915b3c"/>
                <path d="M34.233 8.052c-.734-.12-2.711-.2-3.076-.2-.233 0-.486.053-.624-.161-.113-.175-.072-.472-.105-.675a9.676 9.676 0 0 0-.151-.7 7.136 7.136 0 0 0-.741-1.882 5.786 5.786 0 0 0-2.743-2.483 8.807 8.807 0 0 0-4.164-.573 18.28 18.28 0 0 0-4.258 1.079 8.924 8.924 0 0 1-4.159.4 9.978 9.978 0 0 1-3.682-1.719A6.86 6.86 0 0 0 6.462.016a7.834 7.834 0 0 0-3.711 1.407A6.054 6.054 0 0 0 .358 4.138 3.717 3.717 0 0 0 .7 7.921c1.248 1.626 3.564 2.046 5.491 2a10.491 10.491 0 0 0 3.262-.6 31.539 31.539 0 0 0 3.929-2.009A10.225 10.225 0 0 1 15.3 6.55a2.142 2.142 0 0 1 1.872.124 8.842 8.842 0 0 0 1.886 1.08 6.084 6.084 0 0 0 2.128.382 20.977 20.977 0 0 0 4.174-.745 8.567 8.567 0 0 1 3.454-.249c.476.1 1.17.3 1.342.79-2.891.524-4.027 4.1-3.212 6.724.44 1.417 3.084 3.073 4.112 2.328.651-.472.256-1.091 0-1.5-.49-.783-.658-1.789.249-2.334.782-.47 1.6.646 1.62.645a10.052 10.052 0 0 0 3.353-2.6c1.263.075 1.454-.758 1.153-1.439s-2.184-1.538-3.198-1.704z" transform="rotate(-7 32545.287 -4560.026)" style="fill:#191847;fill-rule:evenodd"/>
            </g>
            <g data-name="Bottom/Standing/Sweatpants">
                <path d="m133.491 0 8.5 29.3 4 22h4.014L146 0z" transform="translate(698.199 3973.359)" style="fill:#784931;fill-rule:evenodd"/>
                <path data-name="Leg" d="M96.074 0c.593 15.223.359 23.525.227 24.908s-.887 10.646-6.024 26.859h4.175a245.124 245.124 0 0 0 9.959-26.859c.78-2.042 3.085-10.345 6.45-24.908z" transform="translate(731.793 3973.359)" style="fill-rule:evenodd;fill:#915b3c"/>
                <path d="M132.671 0q3.318 15.125 11.477 48.285h5.872c.434-22.691-1.411-37.625-4.606-48.285z" transform="translate(698.836 3973.359)" style="fill:#69a1ac;fill-rule:evenodd"/>
                <path data-name="Pant" d="M96.666 0c.581 15.223-.925 30.22-5.59 48.522h6.265A205.634 205.634 0 0 0 112.381 0z" transform="translate(731.172 3973.359)" style="fill:#c5cfd6;fill-rule:evenodd"/>
                <path d="m0 23.994.23-3.714a8.457 8.457 0 0 0 5.07-.465 19.86 19.86 0 0 0 8.244 3.167.464.464 0 0 1 .369.584l-.319 1.123H.461z" transform="translate(821.475 4004.151)" style="fill:#191847;fill-rule:evenodd" data-name="Accessories/Shoe/Flat-Simple"/>
                <g data-name="Accessories/Shoe/Flat-Simple">
                    <path data-name="Shoe" d="m0 23.994.23-3.714a8.457 8.457 0 0 0 5.07-.465 19.86 19.86 0 0 0 8.244 3.167.464.464 0 0 1 .369.584l-.319 1.123H.461z" transform="translate(843.296 4004.151)" style="fill:#191847;fill-rule:evenodd"/>
                </g>
            </g>
            <g data-name="Body/Hoodie">
                <path d="m36.358 0 7.4 5.438A19.932 19.932 0 0 1 48.8 7.46c.318.29.7.877-.617.776s-2.713-.149-2.9.3.617.989.249 1.6q-.368.608-3.479-3.047l-7.332-3.043zM7.927.188l4.851.019Q8.285 14.711 7.927 15.6c-.537 1.331.6 3.359 1.086 4.448-1.583.708-1.415-1.915-3.412-.986-1.823.848-3.21 2.385-5.316 1.085-.259-.16-.543-.761.143-1.231 1.708-1.171 4.169-3.221 4.5-3.9Q5.61 13.639 7.927.188z" transform="rotate(-10 23121.341 -2670.858)" style="fill-rule:evenodd;fill:#915b3c"/>
                <path d="M0 .518 1.97 0c7.98 5.76 12.105 17.807 21.77 23.534l-1.952 2.9C5.84 25.866.616 11.189 0 .518z" transform="rotate(-5 45654.284 -7563.036)" style="fill:#1f28cf;fill-rule:evenodd"/>
                <path d="M0 26.464h17.761c.812 0 .659-1.172.541-1.763-1.354-6.825-6.64-14.182-6.64-23.9L6.54 0C2.3 6.815.837 15.206 0 26.464z" transform="rotate(-10 22992.524 -2734.234)" style="fill:#dde3e9;fill-rule:evenodd"/>
                <path d="M8.3 7.515a2.93 2.93 0 0 1-1.768-1.5c-1.873-3.379-1.2-5.239.8-5.851s3.786.648 6.974.648a3.209 3.209 0 0 1 .477.033l1.6.092q6.9 23.393 3.807 31.215H6.218A47.683 47.683 0 0 1 3.84 37.03H.031Q-.507 19.642 8.3 7.515z" transform="rotate(-10 22991.939 -2687.214)" style="fill:#2b44ff;fill-rule:evenodd"/>
                <path d="M3.044 0Q3.7 5.518 5.188 8.009H0Q1.449 4.63 3.044 0z" transform="rotate(-10 23126.819 -2734.822)" style="fill:rgba(0,0,0,.1);fill-rule:evenodd"/>
            </g>
        </g>
    </g>
</svg>
