<svg data-name="그룹 28891" xmlns="http://www.w3.org/2000/svg" width="17" height="17" viewBox="0 0 17 17">
    <path style="fill:none" d="M0 0h17v17H0z"/>
    <path data-name="↳Color" d="M1.5 11A1.443 1.443 0 0 1 0 9.625 1.443 1.443 0 0 1 1.5 8.25 1.443 1.443 0 0 1 3 9.625 1.443 1.443 0 0 1 1.5 11zm0-4.125A1.443 1.443 0 0 1 0 5.5a1.443 1.443 0 0 1 1.5-1.375A1.443 1.443 0 0 1 3 5.5a1.443 1.443 0 0 1-1.5 1.375zm0-4.125A1.443 1.443 0 0 1 0 1.375 1.443 1.443 0 0 1 1.5 0 1.443 1.443 0 0 1 3 1.375 1.443 1.443 0 0 1 1.5 2.75z" transform="translate(7 3)" style="fill:#cbd2da"/>
</svg>
