<svg xmlns="http://www.w3.org/2000/svg" width="24" height="24" viewBox="0 0 24 24">
    <defs>
        <clipPath id="mj45hnqu3a">
            <circle data-name="타원 310" cx="12" cy="12" r="12" style="fill:#fff"/>
        </clipPath>
    </defs>
    <g data-name="마스크 그룹 49" style="clip-path:url(#mj45hnqu3a)">
        <g data-name="humaaans/standing-1">
            <g data-name="Head/Front/Airy">
                <path data-name="패스 95572" d="M.622 2.6A2.038 2.038 0 0 1 .08 1.131C.193-.48 2.434-.125 2.87.687s.384 2.874-.179 3.02A1.993 1.993 0 0 1 1.5 3.329l.306 2.164H0z" transform="rotate(-7 46.853 -89.507)" style="fill-rule:evenodd;fill:#915b3c"/>
                <path d="M11.1 2.61a10.647 10.647 0 0 0-1-.066c-.076 0-.157.017-.2-.052s-.023-.153-.034-.219-.031-.152-.049-.228a2.313 2.313 0 0 0-.24-.61 1.875 1.875 0 0 0-.889-.8 2.855 2.855 0 0 0-1.353-.19 5.925 5.925 0 0 0-1.38.35 2.893 2.893 0 0 1-1.348.13A3.234 3.234 0 0 1 3.413.369 2.224 2.224 0 0 0 2.095.005a2.539 2.539 0 0 0-1.2.456 1.962 1.962 0 0 0-.776.88 1.2 1.2 0 0 0 .107 1.227 2.161 2.161 0 0 0 1.78.65 3.4 3.4 0 0 0 1.057-.194 10.223 10.223 0 0 0 1.274-.651 3.314 3.314 0 0 1 .623-.249.694.694 0 0 1 .607.04 2.866 2.866 0 0 0 .611.35 1.972 1.972 0 0 0 .69.124A6.8 6.8 0 0 0 8.22 2.4a2.777 2.777 0 0 1 1.12-.081c.154.031.379.1.435.256a1.669 1.669 0 0 0-1.041 2.18c.143.459 1 1 1.333.755.211-.153.083-.354 0-.486-.159-.254-.213-.58.081-.757.254-.152.52.21.525.209a3.258 3.258 0 0 0 1.087-.843c.409.024.471-.246.374-.466A1.835 1.835 0 0 0 11.1 2.61z" transform="rotate(-7 28.109 -12.419)" style="fill:#191847;fill-rule:evenodd"/>
            </g>
            <g data-name="Bottom/Standing/Sweatpants">
                <path d="m133.491 0 2.756 9.5 1.3 7.131h1.3L137.546 0z" transform="translate(-120.95 16.647)" style="fill:#784931;fill-rule:evenodd"/>
                <path data-name="Leg" d="M92.156 0c.192 4.934.116 7.625.073 8.074a41.142 41.142 0 0 1-1.953 8.706h1.354a79.455 79.455 0 0 0 3.228-8.706c.253-.662 1-3.353 2.091-8.074z" transform="translate(-80.854 16.647)" style="fill-rule:evenodd;fill:#915b3c"/>
                <path d="M132.671 0q1.075 4.9 3.72 15.651h1.9C138.434 8.3 137.836 3.455 136.8 0z" transform="translate(-120.189 16.647)" style="fill:#69a1ac;fill-rule:evenodd"/>
                <path data-name="Pant" d="M92.888 0a53.177 53.177 0 0 1-1.812 15.728h2.031A66.654 66.654 0 0 0 97.982 0z" transform="translate(-81.596 16.647)" style="fill:#c5cfd6;fill-rule:evenodd"/>
                <path d="m0 21.169.075-1.2a2.741 2.741 0 0 0 1.643-.15 6.438 6.438 0 0 0 2.672 1.023.15.15 0 0 1 .119.189l-.1.364H.149z" transform="translate(9.23 13.236)" style="fill:#191847;fill-rule:evenodd" data-name="Accessories/Shoe/Flat-Simple"/>
                <g data-name="Accessories/Shoe/Flat-Simple">
                    <path data-name="Shoe" d="m0 21.169.075-1.2a2.741 2.741 0 0 0 1.643-.15 6.438 6.438 0 0 0 2.672 1.023.15.15 0 0 1 .119.189l-.1.364H.149z" transform="translate(16.303 13.236)" style="fill:#191847;fill-rule:evenodd"/>
                </g>
            </g>
            <g data-name="Body/Hoodie">
                <path d="m11.785 0 2.4 1.763a6.461 6.461 0 0 1 1.632.656c.1.094.228.284-.2.252s-.879-.048-.938.1.2.32.081.517q-.119.2-1.128-.988l-2.377-.986zM2.569.061l1.573.006q-1.456 4.7-1.572 4.989c-.174.432.194 1.089.352 1.442-.513.23-.459-.621-1.106-.32-.591.275-1.04.773-1.723.352-.084-.052-.176-.247.046-.4A7.118 7.118 0 0 0 1.6 4.868 39.589 39.589 0 0 0 2.569.061z" transform="rotate(-10 100.647 -32.363)" style="fill-rule:evenodd;fill:#915b3c"/>
                <path d="M0 .168.638 0C3.225 1.867 4.562 5.772 7.7 7.628l-.633.942C1.893 8.384.2 3.627 0 .168z" transform="rotate(-5 111.338 -143.498)" style="fill:#1f28cf;fill-rule:evenodd"/>
                <path d="M0 8.578h5.757c.263 0 .214-.38.175-.572C5.494 5.794 3.78 3.41 3.78.26L2.12 0C.746 2.209.271 4.929 0 8.578z" transform="rotate(-10 58.89 -52.908)" style="fill:#dde3e9;fill-rule:evenodd"/>
                <path d="M2.69 2.436a.95.95 0 0 1-.573-.485c-.607-1.1-.388-1.7.261-1.9S3.6.264 4.638.264a1.04 1.04 0 0 1 .154.011l.52.03Q7.55 7.887 6.547 10.423H2.015A15.456 15.456 0 0 1 1.245 12H.01a15.017 15.017 0 0 1 2.68-9.564z" transform="rotate(-10 58.703 -37.665)" style="fill:#2b44ff;fill-rule:evenodd"/>
                <path d="M.987 0a6.934 6.934 0 0 0 .695 2.6H0Q.47 1.5.987 0z" transform="rotate(-10 102.421 -53.094)" style="fill:rgba(0,0,0,.1);fill-rule:evenodd"/>
            </g>
        </g>
    </g>
</svg>
