<svg xmlns="http://www.w3.org/2000/svg" width="20" height="20" viewBox="0 0 20 20">
    <path data-name="사각형 6619" style="fill:none" d="M0 0h20v20H0z"/>
    <path data-name="패스 91697" d="M38.068 33.835h-2.12l-1.042-1.563A.612.612 0 0 0 34.4 32h-4.9a.612.612 0 0 0-.509.272l-1.042 1.563h-2.114A1.837 1.837 0 0 0 24 35.67v8.563a1.837 1.837 0 0 0 1.835 1.835h12.233a1.837 1.837 0 0 0 1.832-1.835V35.67a1.837 1.837 0 0 0-1.832-1.835zM34.7 39.646a2.752 2.752 0 1 1-2.752-2.752 2.752 2.752 0 0 1 2.752 2.752z" transform="translate(-22.165 -29.553)" style="fill:#9ba5b1"/>
</svg>
