<svg xmlns="http://www.w3.org/2000/svg" width="20" height="20" viewBox="0 0 20 20">
    <path data-name="사각형 6617" style="fill:none" d="M0 0h20v20H0z"/>
    <g data-name="그룹 11131" transform="translate(2.5 2.5)">
        <circle data-name="타원 280" cx="1" cy="1" r="1" transform="translate(4.5 3.5)" style="fill:#f58220"/>
        <path data-name="패스 91695" d="M45.75 32h-12.5A1.251 1.251 0 0 0 32 33.25v12.5A1.251 1.251 0 0 0 33.25 47h12.5A1.251 1.251 0 0 0 47 45.75v-12.5A1.251 1.251 0 0 0 45.75 32zm-2.241 6.25a1.251 1.251 0 0 0-1.768 0l-3.491 3.491-1.616-1.616a1.252 1.252 0 0 0-1.768 0l-1.616 1.616V33.25h12.5v7.242z" transform="translate(-31.999 -32)" style="fill:#21b280"/>
    </g>
</svg>
