<svg xmlns="http://www.w3.org/2000/svg" width="37.274" height="37.274" viewBox="0 0 37.274 37.274">
    <path data-name="패스 98362" d="M37.274 34.362a2.912 2.912 0 0 1-2.912 2.912H2.912A2.912 2.912 0 0 1 0 34.362V2.912A2.912 2.912 0 0 1 2.912 0h31.45a2.912 2.912 0 0 1 2.912 2.912z" style="fill:#ffe812"/>
    <path data-name="패스 98363" d="M18.637 5.242c-8.363 0-15.143 5.345-15.143 11.939 0 4.263 2.834 8 7.1 10.116-.232.8-1.491 5.146-1.541 5.488 0 0-.03.257.136.354a.457.457 0 0 0 .362.022c.476-.067 5.525-3.613 6.4-4.228a19.184 19.184 0 0 0 2.69.188c8.363 0 15.143-5.345 15.143-11.939S27 5.242 18.637 5.242z"/>
    <path data-name="패스 98364" d="M52.344 101.235a.856.856 0 0 1-.874-.834v-5.19h-1.363a.855.855 0 1 1 0-1.711h4.473a.855.855 0 1 1 0 1.711h-1.362v5.19a.856.856 0 0 1-.874.834zm7.66-.011a.717.717 0 0 1-.727-.386l-.433-1.132h-2.663l-.433 1.133a.716.716 0 0 1-.727.385 1.333 1.333 0 0 1-.555-.121c-.241-.111-.472-.417-.207-1.241l2.09-5.5a1.217 1.217 0 0 1 2.329 0l2.089 5.5c.266.826.034 1.131-.206 1.242a1.336 1.336 0 0 1-.555.12zm-1.619-3.066-.873-2.479-.873 2.479h1.745zm3.787 2.95a.821.821 0 0 1-.837-.8v-5.934a.892.892 0 0 1 1.784 0v5.132h1.856a.8.8 0 1 1 0 1.6zm4.854.116a.874.874 0 0 1-.874-.874v-5.976a.874.874 0 1 1 1.747 0v1.878l2.437-2.437a.678.678 0 0 1 .485-.194.884.884 0 0 1 .858.812.681.681 0 0 1-.193.532L69.5 96.954l2.15 2.849a.874.874 0 0 1-1.395 1.052L68.2 98.14l-.3.3v1.906a.875.875 0 0 1-.874.878z" transform="translate(-42.079 -79.886)" style="fill:#ffe812"/>
</svg>
