<svg xmlns="http://www.w3.org/2000/svg" width="26" height="26" viewBox="0 0 26 26">
    <path data-name="사각형 6624" style="fill:none" d="M0 0h26v26H0z"/>
    <path data-name="패스 91699" d="M37.416 16a7.9 7.9 0 0 0-7.5 10.334l-5.678 5.678a.789.789 0 0 0-.231.558v3.945a.789.789 0 0 0 .789.789h3.945a.789.789 0 0 0 .789-.789v-1.579h1.57a.789.789 0 0 0 .789-.789v-1.578h1.578a.789.789 0 0 0 .558-.231l.944-.944A7.891 7.891 0 1 0 37.416 16zm1.972 7.5a1.578 1.578 0 1 1 1.578-1.578 1.578 1.578 0 0 1-1.578 1.578z" transform="translate(-21.635 -14.422)" style="fill:#fff"/>
</svg>
