<svg xmlns="http://www.w3.org/2000/svg" width="360" height="287" viewBox="0 0 360 287">
    <defs>
        <clipPath id="kpp95jv1wa">
            <path data-name="사각형 6722" style="fill:none" d="M0 0h360v287H0z"/>
        </clipPath>
    </defs>
    <g data-name="그룹 12740">
        <g data-name="그룹 12739" style="clip-path:url(#kpp95jv1wa)">
            <path data-name="패스 91725" d="M244.489 173.051c0 7.8-41.206 14.116-92.035 14.116s-92.037-6.321-92.037-14.116 41.206-14.115 92.037-14.115 92.035 6.32 92.035 14.115" transform="translate(26.915 69.218)" style="fill:#f7dc91"/>
            <path data-name="패스 91726" d="M73.934 134.615c-3.2-8.428-9.5-15.244-14.224-19.478a68.2 68.2 0 0 0-9.631-7.269l.693-1.178a68.123 68.123 0 0 1 9.828 7.41c4.847 4.339 11.318 11.336 14.614 20.033z" transform="translate(22.384 46.321)" style="fill:#54856a"/>
            <path data-name="패스 91727" d="M65.416 112.043c-1.141-2.444-5.345-2.812-8.312-2.75 5.25-1.411 9.69-5.723 6.308-6.951-2.533-.92-5.767 1.791-7.821 3.932 2.714-4.71 2.8-10.9-.453-9.376-2.442 1.141-2.813 5.345-2.751 8.31-1.411-5.25-5.723-9.688-6.951-6.308-.92 2.533 1.792 5.769 3.934 7.821-4.71-2.714-10.9-2.8-9.377.454 1.141 2.442 5.346 2.813 8.312 2.751-5.25 1.411-9.69 5.723-6.308 6.95 2.533.92 5.767-1.791 7.821-3.932-2.714 4.71-2.8 10.9.454 9.376 2.442-1.139 2.812-5.345 2.75-8.312 1.411 5.251 5.723 9.691 6.951 6.31.92-2.533-1.791-5.769-3.934-7.821 4.71 2.714 10.9 2.8 9.377-.454" transform="translate(17.86 41.927)" style="fill:#91d4e3"/>
            <path data-name="패스 91728" d="M51.286 107.1a2.063 2.063 0 1 1-1.093-2.705 2.062 2.062 0 0 1 1.093 2.705" transform="translate(21.177 45.243)" style="fill:#fff"/>
            <path data-name="패스 91729" d="m172.918 92.557-.3-1.333c9.415-2.136 15.612-8.562 19.153-13.577a43.644 43.644 0 0 0 5.5-10.493l1.3.417a44.336 44.336 0 0 1-5.678 10.865 38.967 38.967 0 0 1-7.912 8.381 30.748 30.748 0 0 1-12.058 5.742" transform="translate(76.086 28.994)" style="fill:#54856a"/>
            <path data-name="패스 91730" d="M206.4 60.838c-2.516-.965-5.8 1.689-7.89 3.793 2.8-4.661 3-10.846-.286-9.383-2.462 1.1-2.908 5.294-2.9 8.261-1.317-5.274-5.55-9.79-6.837-6.432-.965 2.516 1.687 5.8 3.793 7.89-4.661-2.8-10.847-3-9.383.286 1.1 2.462 5.293 2.908 8.261 2.9-5.275 1.316-9.79 5.549-6.432 6.836 2.516.966 5.8-1.687 7.89-3.791-2.8 4.661-3 10.846.286 9.383 2.462-1.1 2.907-5.294 2.9-8.263 1.317 5.276 5.549 9.792 6.837 6.433.965-2.517-1.687-5.8-3.793-7.892 4.661 2.8 10.847 3 9.383-.286-1.1-2.461-5.293-2.907-8.261-2.9 5.276-1.317 9.792-5.549 6.432-6.837" transform="translate(80.498 23.68)" style="fill:#91d4e3"/>
            <path data-name="패스 91731" d="M194.2 63.878a2.063 2.063 0 1 1-2.665-1.188 2.064 2.064 0 0 1 2.665 1.188" transform="translate(83.795 26.978)" style="fill:#fff"/>
            <path data-name="패스 91732" d="M207.258 97.588c-.991 3.9-2.717 7.342-1.548 12.556.991 4.421 1.891 10.491-.516 15.651a20.658 20.658 0 0 1-5.421 6.636c-2.91 2.15.322 12.231-6.015 17.212-.91.728-2.277 1.274-2.825 2.369-1.366 2.277-.729 5.648-1.822 8.2-2.5 5.759-17.4 13.817-28.247 10.022-1.709-.663-5.46-13.84-3.645-18.133 1-2.369 3.371-3.46 3.918-6.1 2.12-10.948-2.744-1.1 10.069-17.586 3.764-5.063 1.027-7.643 5.953-14.485 3.1-4.3 5.444-4.638 6.708-6.535 3.1-4.644.515-6.879 3.784-11.351 2.644-3.619 5.642-2.789 8.943-5.677 2.751-2.408 3.833-6.01 7.912-5.332 4.128.689 4.171 6.961 2.751 12.556" transform="translate(69.127 36.793)" style="fill:#517c48"/>
            <path data-name="패스 91733" d="M201.734 92.661c-2.236 13.071-7.5 19.819-13.587 31.99-9.459 18.92-14.492 39.625-39.214 55.21" transform="translate(65.707 40.173)" style="stroke-width:.5px;stroke:#648f5c;stroke-linecap:round;stroke-linejoin:round;fill:none"/>
            <path data-name="패스 91734" d="M180.848 97.149c-.069 1.251.341 2.449.37 3.692.016.745.086 1.484.086 2.234a.341.341 0 0 0 .682 0v-.184a.341.341 0 0 0-.682 0v.184a.341.341 0 0 0 .682 0c0-.675-.017-1.339-.072-2.012a29.206 29.206 0 0 1-.383-3.913c.023-.44-.66-.439-.683 0" transform="translate(79.691 41.995)" style="fill:#648f5c"/>
            <path data-name="패스 91735" d="M187.359 103.915c.857-.558 1.927-1.214 2.743-1.835.345-.263.006-.857-.345-.59-1.589 1.212-3.344 1.651-5.451 3.715-.314.308.043 1.118.559.644 0 0 1.684-1.407 2.494-1.934" transform="translate(81.158 44.012)" style="fill:#648f5c"/>
            <path data-name="패스 91736" d="M181.082 112.346a15.463 15.463 0 0 1 6.105-1.355c.442.016.44-.667 0-.683a15.908 15.908 0 0 0-6.287 1.379c-.4.163-.227.824.181.659" transform="translate(79.617 47.904)" style="fill:#648f5c"/>
            <path data-name="패스 91737" d="M174.7 105.7a22.813 22.813 0 0 0 .831 4.738c.1.43.757.247.66-.181a21.747 21.747 0 0 1-.807-4.556.343.343 0 0 0-.685 0" transform="translate(77 45.743)" style="fill:#648f5c"/>
            <path data-name="패스 91738" d="M171.469 112.418a18.553 18.553 0 0 0 .833 5.74c.137.419.8.239.659-.181a17.873 17.873 0 0 1-.807-5.559.343.343 0 0 0-.685 0" transform="translate(75.584 48.686)" style="fill:#648f5c"/>
            <path data-name="패스 91739" d="M166.538 120.367a23.078 23.078 0 0 0 1.276 4.556c.164.4.824.227.659-.183a23.067 23.067 0 0 1-1.276-4.555c-.078-.434-.736-.25-.659.181" transform="translate(73.42 52.127)" style="fill:#648f5c"/>
            <path data-name="패스 91740" d="M173.328 126.242a5.862 5.862 0 0 0 3.013-.808 8.685 8.685 0 0 0 2.6-1.934c.289-.329-.193-.814-.482-.482-1.159 1.316-3.32 2.685-5.136 2.541-.44-.035-.436.65 0 .683" transform="translate(76.254 53.427)" style="fill:#648f5c"/>
            <path data-name="패스 91741" d="M61.689 87.587c5.88 5.557 14.511 12.171 18.891 28.3.669 2.465.255 6.609.938 9.07.956 3.691 1.9 4.969 4.089 7.84 7.555 9.441 4.029 29.664 9.465 37.518 3.714 5.447 24.22 22.079 17.872 32.017-4.8 7.731-17.6-5.258-21.032-8.594-8.655-8.4-17.289-17.587-20.691-29.419-4.753-16.536-.111-34.65-7.966-50.461a85.9 85.9 0 0 1-6.881-18.19c-.828-3.446-3.282-11.91.564-14.5 1.658-.059.712 2.608 4.751 6.425" transform="translate(24.47 35.133)" style="fill:#5f9e7d"/>
            <path data-name="패스 91742" d="M60.082 92.661c10.491 15.651 11.18 27.174 13.931 41.965 3.709 19.936 5.5 32.335 25.627 51.082" transform="translate(26.768 40.173)" style="stroke-miterlimit:10;stroke:#77b695;stroke-width:.5px;fill:none"/>
            <path data-name="패스 91743" d="M163.377 154.518c2.451-3.955 4.722-12.392 7.547-16.129 1.458-2.094 6.758-2.915 8.49-4.92 4-4.843.807-11.441.6-13.462-.454-5.667 3.111-6.56 10.163-13.612 7.653-7.653 4.185-15.477 4.359-18.942.2-4.8 4.623-7.581 5.694-10.752 2.157-6.377 2.051-12.014.594-16.385-1.25-3.752-5.941-3.439-8.13-1.563-2.042 1.75-3.617 4.359-6.879 6.567-1.605 1.086-6.169 2.347-7.677 3.409-9.287 6.535-5.159 13.76-8.083 18.231-2.331 3.564-7.211 4.81-9.116 10.492-2.131 6.354-1.043 8.555-4.644 10.319-9.81 4.8-3.54 5.592-4.405 11.438-.6 5.6-6.284 4.318-7.289 12.119-.913 5.557 3.017 10.118-4.463 12.255-27.632 7.895 4.508 41.169 23.236 10.934" transform="translate(57.138 24.719)" style="fill:#648f5c"/>
            <path data-name="패스 91744" d="M189.815 65.157c-9.852 12.3-11.223 24.752-17.2 36.977-8.906 18.217-14.15 35.841-38.87 51.426" transform="translate(59.051 28.119)" style="stroke:#527c49;stroke-miterlimit:10;stroke-width:.5px;fill:none"/>
            <path data-name="패스 91745" d="M164.844 68.419a6.514 6.514 0 0 0-.116 3.276 11.528 11.528 0 0 0 .971 3.366c.193.4.781.05.59-.345a11.3 11.3 0 0 1-.872-3.013 5.91 5.91 0 0 1 .088-3.1c.164-.408-.5-.585-.66-.181" transform="translate(72.563 29.448)" style="fill:#527c49"/>
            <path data-name="패스 91746" d="M162.6 74.342a14.55 14.55 0 0 0 1.139 6.734c.2.393.788.047.59-.347a13.859 13.859 0 0 1-1.046-6.387.342.342 0 0 0-.683 0" transform="translate(71.697 32)" style="fill:#527c49"/>
            <path data-name="패스 91747" d="M156.758 84.931a16.218 16.218 0 0 0 3.242 4.26.342.342 0 0 0 .485-.482 15.731 15.731 0 0 1-3.137-4.123c-.191-.4-.782-.049-.59.345" transform="translate(69.12 36.557)" style="fill:#527c49"/>
            <path data-name="패스 91748" d="M171.09 73.375c1.651-.955 3.758-1.23 4.952-2.856.262-.355-.332-.7-.59-.344-1.086 1.479-3.2 1.737-4.707 2.61a.342.342 0 0 0 .345.59" transform="translate(75.193 30.253)" style="fill:#527c49"/>
            <path data-name="패스 91749" d="M166.993 83.163a8.486 8.486 0 0 0 3.475-1.391 5.749 5.749 0 0 0 2.5-2.779c.141-.419-.519-.6-.659-.181a5.14 5.14 0 0 1-2.189 2.369 7.486 7.486 0 0 1-3.13 1.3c-.434.053-.437.736 0 .685" transform="translate(73.479 34)" style="fill:#527c49"/>
            <path data-name="패스 91750" d="M165.091 89.091c2.193.052 4.474-1.356 6.187-2.6.352-.256.013-.85-.345-.59-1.615 1.169-3.774 2.553-5.842 2.5a.342.342 0 0 0 0 .683" transform="translate(72.644 37.183)" style="fill:#527c49"/>
            <path data-name="패스 91751" d="M154.046 91.26a13.13 13.13 0 0 0 3 5.435c.3.326.78-.158.482-.482a12.427 12.427 0 0 1-2.826-5.135.342.342 0 0 0-.66.181" transform="translate(67.942 39.373)" style="fill:#527c49"/>
            <path data-name="패스 91752" d="M157.836 101.777a11.432 11.432 0 0 0 4.8-2.547c.329-.3-.155-.777-.482-.485a10.711 10.711 0 0 1-4.5 2.373.342.342 0 0 0 .183.659" transform="translate(69.422 42.8)" style="fill:#527c49"/>
            <path data-name="패스 91753" d="M155.169 108.443c2.1-.885 4.469-1.374 6.164-3 .318-.3-.167-.788-.483-.482-1.6 1.539-3.875 1.992-5.864 2.826-.4.17-.224.831.183.66" transform="translate(68.261 45.519)" style="fill:#527c49"/>
            <path data-name="패스 91754" d="M149.4 101.16a36.574 36.574 0 0 0 2.461 6.379c.163.4.823.226.657-.183a36.674 36.674 0 0 1-2.458-6.379c-.089-.431-.748-.247-.66.183" transform="translate(65.907 43.709)" style="fill:#527c49"/>
            <path data-name="패스 91755" d="M150.625 115.337a9.824 9.824 0 0 0 6.164-2.743c.306-.316-.175-.8-.483-.483a9.1 9.1 0 0 1-5.681 2.541c-.439.029-.44.713 0 .685" transform="translate(66.304 48.651)" style="fill:#527c49"/>
            <path data-name="패스 91756" d="M146.54 107.346c.87 1.073 1.67 2.2 2.5 3.3.26.348.853.009.59-.344-.861-1.151-1.7-2.324-2.606-3.442-.276-.342-.757.147-.482.483" transform="translate(64.622 46.346)" style="fill:#527c49"/>
            <path data-name="패스 91757" d="M136.372 119.829c.062 1.989 1.427 3.652 2.416 5.277.229.375.82.032.59-.345-.915-1.506-2.265-3.092-2.323-4.932-.014-.439-.7-.44-.683 0" transform="translate(60.202 51.935)" style="fill:#527c49"/>
            <path data-name="패스 91758" d="M172.968 37.876h-19.136A6.833 6.833 0 0 0 147 44.709v20.835l6.028-5.484a6.784 6.784 0 0 0 .805.049h19.136a6.834 6.834 0 0 0 6.835-6.833v-8.567a6.834 6.834 0 0 0-6.835-6.833" transform="translate(64.859 16.163)" style="fill:#fff"/>
            <path data-name="패스 91759" d="M155.174 45.864a4.37 4.37 0 0 0-1.342-2.491c-.923-.581-1.594.909-1.827 1.533a14.957 14.957 0 0 0-.483 1.739.326.326 0 0 0-.036.152l-.04.163c-.22.889-.7 3.186-.909 4.079-.088.38.41.682.526.306.292-.952.57-2.572.767-3.473a19.046 19.046 0 0 0 3.108-.279c.352 1.254.558 2.222.811 3.5.075.384.66.221.585-.163-.3-1.54-.7-3.567-1.161-5.068m-2.951.482c.006-.02.723-3 1.441-2.341.548.508.941 2.268 1.148 3.012a19.782 19.782 0 0 1-2.862.255z" transform="translate(66.406 18.514)" style="fill:#92cca0"/>
            <path data-name="패스 91760" d="M159.833 46.631a2.592 2.592 0 0 0 1.161-1.179c.923-2.117-2.446-2.7-3.787-2.09a.277.277 0 0 0-.141.245c0 2.306-.092 4.612-.014 6.915a.287.287 0 0 0 .043.142.253.253 0 0 0 .242.141 9.253 9.253 0 0 0 3.633-.732c.955-.423 1.8-1.473 1.179-2.524a2.706 2.706 0 0 0-2.316-.918m.118-2.646a.992.992 0 0 1 .177 1.716 4.752 4.752 0 0 1-2.409 1.053l-.118.017c.012-.992.029-1.985.032-2.976a3.244 3.244 0 0 1 2.318.19m.465 5.71a8.75 8.75 0 0 1-2.8.536 74.85 74.85 0 0 1-.017-2.882l.216-.037c.388-.056.781-.089 1.172-.109a3.745 3.745 0 0 1 2.537.472c.931.8-.429 1.759-1.1 2.021" transform="translate(69.251 18.467)" style="fill:#92cca0"/>
            <path data-name="패스 91761" d="M168.371 48.5a4.054 4.054 0 0 1-1.578 1.01c-1.005.377-2.764.44-3.259-.742-.748-1.786 1.13-5.927 3.412-4.47.309.2.593-.293.286-.489a2.5 2.5 0 0 0-3.386.92 4.826 4.826 0 0 0-.9 4.076c.4 1.4 2.074 1.619 3.305 1.434a4.492 4.492 0 0 0 2.519-1.339c.246-.27-.152-.672-.4-.4" transform="translate(71.786 18.608)" style="fill:#92cca0"/>
            <path data-name="패스 91762" d="M103.327 19.756H80.571a4.1 4.1 0 0 0-4.1 4.1v10.48a4.1 4.1 0 0 0 4.1 4.1H103l4.431 5.058V23.856a4.1 4.1 0 0 0-4.1-4.1" transform="translate(33.95 8.222)" style="fill:#fff"/>
            <path data-name="패스 91763" d="M83.419 26.753h-1.89v-1.891a.343.343 0 0 0-.685 0v1.891h-1.89a.342.342 0 0 0 0 .683h1.89v1.891a.343.343 0 0 0 .685 0v-1.891h1.89a.342.342 0 0 0 0-.683" transform="translate(34.894 10.315)" style="fill:#92cca0"/>
            <path data-name="패스 91764" d="m90.63 26.9 1.338-1.338a.342.342 0 0 0-.485-.482q-.669.667-1.336 1.336l-1.338-1.336a.341.341 0 0 0-.483.482q.669.671 1.338 1.338l-1.338 1.338a.341.341 0 0 0 .483.482l1.338-1.336 1.336 1.336a.342.342 0 0 0 .485-.482q-.668-.671-1.338-1.338" transform="translate(39.102 10.51)" style="fill:#92cca0"/>
            <path data-name="패스 91765" d="M83.928 26.759h3.827a.342.342 0 0 0 0-.683h-3.827a.342.342 0 0 0 0 .683" transform="translate(37.074 10.992)" style="fill:#92cca0"/>
            <path data-name="패스 91766" d="M92.671 26.759h4.374a.342.342 0 0 0 0-.683h-4.374a.342.342 0 0 0 0 .683" transform="translate(40.905 10.992)" style="fill:#bae0c5"/>
            <path data-name="패스 91767" d="M94.8 25.237a.547.547 0 1 1-.547-.547.546.546 0 0 1 .547.547" transform="translate(41.505 10.384)" style="fill:#92cca0"/>
            <path data-name="패스 91768" d="M94.8 27.724a.547.547 0 1 0-.547.547.546.546 0 0 0 .547-.547" transform="translate(41.505 11.474)" style="fill:#92cca0"/>
            <path data-name="패스 91769" d="M142.747 20.77h-29.523a6.834 6.834 0 0 0-6.835 6.833v24.968l8.11-6.105h28.247a6.833 6.833 0 0 0 6.833-6.833V27.6a6.833 6.833 0 0 0-6.833-6.833" transform="translate(47.062 8.666)" style="fill:#fbd180"/>
            <path data-name="패스 91770" d="M118.684 36.376a3.867 3.867 0 0 0 2.474-1.277c-1.454-1.753-3.022-3.636-3.022-3.636v-4.545c0-.851.1-1.374.6-1.766.67-.534.427-.906.427-.906h-4.716s-.243.373.429.906c.5.393.6.915.6 1.766v4.545s-1.619 1.945-3.094 3.721a5.418 5.418 0 0 1 1.863-.413c1.539 0 2.717 1.605 4.443 1.605" transform="translate(49.687 10.19)" style="fill:#fff"/>
            <path data-name="패스 91771" d="m111.621 36.416 5.979-.016 5.979.012c1.479 0 1.054-1.254.785-1.6a317.91 317.91 0 0 0-2.411-2.924 3.871 3.871 0 0 1-2.474 1.277c-1.724 0-2.9-1.607-4.441-1.607a5.4 5.4 0 0 0-1.864.414 374.082 374.082 0 0 0-2.34 2.839c-.268.345-.692 1.6.787 1.6" transform="translate(48.892 13.396)" style="fill:#78bf8f"/>
            <path data-name="사각형 6707" transform="translate(175.137 35.12)" style="fill:#fff9de" d="M0 0h15.445v.547H0z"/>
            <path data-name="사각형 6708" transform="translate(177.69 39.038)" style="fill:#fff9de" d="M0 0h12.892v.547H0z"/>
            <path data-name="사각형 6709" transform="translate(180.969 42.956)" style="fill:#fff9de" d="M0 0h9.613v.547H0z"/>
            <path data-name="사각형 6710" transform="translate(180.969 46.874)" style="fill:#fff9de" d="M0 0h9.613v.547H0z"/>
            <path data-name="패스 91772" d="M77.346 90.469c-.68-17.807-4.854-24.739-8.235-27.42a6.467 6.467 0 0 0-4.824-1.663l-.262-1.342a7.764 7.764 0 0 1 5.933 1.934c2.27 1.8 4.141 4.7 5.562 8.631 1.806 5 2.881 11.66 3.193 19.808z" transform="translate(28.496 25.854)" style="fill:#54856a"/>
            <path data-name="패스 91773" d="M78.935 61.248c-2-1.8-6.019-.5-8.726.718 4.282-3.351 6.682-9.055 3.091-8.864-2.691.144-4.61 3.9-5.662 6.678.657-5.4-1.678-11.128-4.083-8.453-1.8 2-.5 6.018.718 8.724-3.351-4.28-9.055-6.682-8.864-3.091.142 2.692 3.9 4.61 6.676 5.662-5.4-.657-11.126 1.68-8.453 4.083 2 1.8 6.019.5 8.726-.718-4.282 3.351-6.682 9.055-3.091 8.865 2.691-.144 4.61-3.9 5.662-6.678-.657 5.4 1.678 11.128 4.083 8.453 1.8-2 .5-6.019-.718-8.726 3.351 4.282 9.055 6.682 8.865 3.091-.144-2.691-3.9-4.61-6.678-5.662 5.4.657 11.128-1.678 8.453-4.083" transform="translate(23.644 21.76)" style="fill:#91d4e3"/>
            <path data-name="패스 91774" d="M64.913 60.543a2.063 2.063 0 1 1-2.064-2.062 2.064 2.064 0 0 1 2.064 2.062" transform="translate(27.077 25.193)" style="fill:#fff"/>
            <path data-name="패스 91775" d="M154.006 25.642a.867.867 0 1 1-.866-.867.865.865 0 0 1 .866.867" transform="translate(67.171 10.422)" style="fill:#f8bc4d"/>
            <path data-name="패스 91776" d="M153.7 23.026h-.1a3.314 3.314 0 0 0-2.4 1.067c-.306.367.219.9.529.528a2.592 2.592 0 0 1 3.836 0c.309.371.837-.161.529-.528a3.311 3.311 0 0 0-2.4-1.067" transform="translate(66.661 9.655)" style="fill:#f8bc4d"/>
            <path data-name="패스 91777" d="M154.143 21.271a5.916 5.916 0 0 0-4.052 1.494.374.374 0 0 0 .529.529 5.5 5.5 0 0 1 7.045 0 .374.374 0 0 0 .529-.529 5.913 5.913 0 0 0-4.052-1.494" transform="translate(66.167 8.886)" style="fill:#f8bc4d"/>
            <path data-name="패스 91778" d="M160.266 21.522a8.526 8.526 0 0 0-11.279 0c-.337.347.193.876.529.529a7.784 7.784 0 0 1 10.222 0c.337.347.864-.183.528-.529" transform="translate(65.683 8.062)" style="fill:#f8bc4d"/>
            <path data-name="패스 91779" d="M49.554 66.208a1.914 1.914 0 1 1-1.913-1.914 1.913 1.913 0 0 1 1.913 1.914" transform="translate(20.477 27.741)" style="fill:#f8bc4d"/>
            <path data-name="패스 91780" d="M141.348 42.914A1.914 1.914 0 1 1 139.435 41a1.913 1.913 0 0 1 1.913 1.913" transform="translate(60.706 17.533)" style="fill:#fff"/>
            <path data-name="패스 91781" d="M66.539 32.316v3.77l3.452-2.146z" transform="translate(29.598 13.727)" style="fill:#f4b7b9"/>
            <path data-name="패스 91782" d="M139.324 15.571h4.464l-2.232-3.521z" transform="translate(61.496 4.845)" style="fill:#fff"/>
            <path data-name="패스 91783" d="M103.412 12.819s-.683 2.505-2.915 2.734c0 0 2.6.41 2.915 2.733.319-2.323 2.915-2.733 2.915-2.733-2.232-.229-2.915-2.734-2.915-2.734" transform="translate(44.48 5.182)" style="fill:#fff"/>
            <path data-name="패스 91784" d="M178.232 28.364s-.821 3.007-3.5 3.281c0 0 3.118.492 3.5 3.281.381-2.789 3.5-3.281 3.5-3.281-2.678-.273-3.5-3.281-3.5-3.281" transform="translate(77.013 11.994)" style="fill:#f4b7b9"/>
            <path data-name="패스 91785" d="M128.748 149.962c9.215-6.581.091-14.01-.956-20.5-.617-3.816.273-7.243-1.095-10.934-3.193-9.582-9.422-12.264-14.078-16.675-6.174-5.881-3.463-9.242-4.282-14.124-.826-4.92-2.363-7.823-7.2-11.093-2.569-1.739-4.978-3.114-5.125-8.417-.081-2.872.716-6.032-.885-9.661-2.58-5.848-9.367-6.79-12.383-12.556-1.283-2.452-2.408-4.643-4.706-4.972-3.393-.485-5.015 2.331-5.263 5.33-.547 6.652 4.121 8.758 3.948 14.605-.141 4.827-2.062 7.052-3.268 10.836-2.547 8.007 3.268 15.995 7.384 22.192 3.525 5.307-1.4 8.322-1.536 13.925 0 3.691.029 8.414 1.2 11.523 2.924 7.741 7.534 9.875 11.745 15.077 2.051 2.6.295 6.594 1.327 10.55 1.9 7.288 19.652 15.888 35.167 4.894" transform="translate(32.312 17.521)" style="fill:#648f5c"/>
            <path data-name="패스 91786" d="M104.105 96.035c.383 1.138-.837 2.56-1.48 3.378-.746.954-1.605 1.8-2.4 2.714-.288.329.194.817.483.483.883-1.017 1.825-1.97 2.649-3.039.734-.954 1.837-2.429 1.4-3.718-.14-.416-.8-.237-.659.181" transform="translate(44.324 41.469)" style="fill:#527c49"/>
            <path data-name="패스 91787" d="M76.346 46.143c7.588 13.809 6.879 27.691 10.663 40.757 5.638 19.477 10.148 29.927 31.818 49.533" transform="translate(33.896 19.786)" style="stroke:#527c49;stroke-miterlimit:10;stroke-width:.5px;fill:none"/>
            <path data-name="패스 91788" d="M82.26 53.173a4.734 4.734 0 0 1-.512 4.178c-.269.349.325.689.59.345a5.384 5.384 0 0 0 .581-4.7.342.342 0 0 0-.659.181" transform="translate(36.233 22.682)" style="fill:#527c49"/>
            <path data-name="패스 91789" d="M77.05 61.261a21.052 21.052 0 0 1 3.13 1.674c.391.2.738-.387.347-.59a21.945 21.945 0 0 0-3.3-1.743c-.421-.134-.6.526-.181.659" transform="translate(34.1 26.115)" style="fill:#527c49"/>
            <path data-name="패스 91790" d="M86.377 63.658c.009 1.6-1.584 3.144-2.633 4.2a.342.342 0 0 0 .483.483c1.188-1.2 2.843-2.874 2.833-4.684a.342.342 0 0 0-.683 0" transform="translate(37.094 27.317)" style="fill:#527c49"/>
            <path data-name="패스 91791" d="M77.173 68.722a7.517 7.517 0 0 1 2.313.532 4.545 4.545 0 0 1 2.243 1.346c.243.364.836.023.591-.345a4.579 4.579 0 0 0-2.149-1.466 8.624 8.624 0 0 0-3-.754.342.342 0 0 0 0 .683" transform="translate(34.113 29.382)" style="fill:#527c49"/>
            <path data-name="패스 91792" d="M86.259 75.494c.965-1.363 2.367-2.372 2.836-4.046a.342.342 0 0 0-.659-.181c-.444 1.585-1.85 2.586-2.767 3.882-.256.361.337.7.59.345" transform="translate(37.954 30.691)" style="fill:#527c49"/>
            <path data-name="패스 91793" d="M80.467 77.371c1.185.49 2.539.525 3.678 1.129.388.206.733-.383.344-.591-1.2-.634-2.6-.683-3.84-1.2-.407-.168-.582.493-.181.657" transform="translate(35.602 33.172)" style="fill:#527c49"/>
            <path data-name="패스 91794" d="M81.608 84.98c1.553.006 3.213.134 4.614-.662a.342.342 0 0 0-.345-.59c-1.283.728-2.848.574-4.269.568a.342.342 0 0 0 0 .683" transform="translate(36.057 36.237)" style="fill:#527c49"/>
            <path data-name="패스 91795" d="M93.646 78.316c-.224 1.747-1.168 4.313-2.961 5-.407.157-.23.817.183.659 2.126-.815 3.194-3.57 3.462-5.66.056-.437-.629-.431-.683 0" transform="translate(40.078 33.743)" style="fill:#527c49"/>
            <path data-name="패스 91796" d="M85.217 94.51c1.651.16 3.412.547 5.011-.081.406-.16.23-.82-.181-.659-1.536.6-3.243.21-4.83.056-.439-.043-.434.641 0 .683" transform="translate(37.64 40.648)" style="fill:#527c49"/>
            <path data-name="패스 91797" d="M97.028 87.726c.095 1.914-1.054 3.757-2.073 5.294-.243.37.349.712.591.345 1.083-1.635 2.265-3.6 2.165-5.639-.022-.439-.7-.442-.683 0" transform="translate(42.026 37.865)" style="fill:#527c49"/>
            <path data-name="패스 91798" d="M86.6 102.038c2.592 1.073 6.033.329 8.464-.854.4-.194.049-.782-.345-.59-2.281 1.11-5.511 1.788-7.938.784-.407-.167-.582.493-.181.66" transform="translate(38.289 43.633)" style="fill:#527c49"/>
            <path data-name="패스 91799" d="M107.891 100.886c-.187 2.329-2.543 3.557-3.863 5.225-.27.342.21.83.483.485 1.473-1.863 3.855-3.11 4.064-5.71.035-.44-.649-.436-.685 0" transform="translate(45.992 43.633)" style="fill:#527c49"/>
            <path data-name="패스 91800" d="M146.2 186.442c-7.968-14.355 7.594-14.141 9.635-22.6 3.653-13.7 8.783-11.331 14.532-17.754 2.051-2.461 2.9-4.936 4.535-7.534 3.555-5.877 8.867-7.454 14.226-11.1a30.51 30.51 0 0 0 9.508-9.452c1.842-3 3.646-10.456 6.2-10.885 1.694-.283 8.107 27.161-8.747 47.793-19.586 23.869-13.456 30.7-21.141 37.222-13.376 11.356-23.691 3.417-28.748-5.7" transform="translate(63.52 46.51)" style="fill:#5f9e7d"/>
            <path data-name="패스 91801" d="M96.881 162.028c3.508 3.235 7.2 3.189 9.113 4.556 18.856 12.567 10.124-20.731 6.833-27.883-4.739-9.91-7.675-10.977-12.77-18.451C82.768 95.558 91.111 96.989 68 73.734c-1.658-1.668-2.028-.365-1.822-.024 4.449 7.279 4.922 21.371 4.1 30.412-2.211 27.156 9.413 24.9 18.451 39.158 4.2 6.9 3.565 14.518 8.155 18.749" transform="translate(29.415 31.514)" style="fill:#78bf8f"/>
            <path data-name="패스 91802" d="M70.966 80.793a17.591 17.591 0 0 1 5.183 9.007c.436 1.607.9 3.223 1.2 4.861a54.71 54.71 0 0 1 .618 6.56 46.846 46.846 0 0 0 .685 6.209 24.344 24.344 0 0 0 1.753 5.293 51.157 51.157 0 0 0 5.251 8.768c4.236 5.924 9.077 11.405 12.9 17.623a33.035 33.035 0 0 1 4.036 9 73.914 73.914 0 0 1 1.763 11.28c.045.434.728.439.685 0a80.93 80.93 0 0 0-1.694-11.085 32.219 32.219 0 0 0-3.741-8.781c-3.75-6.354-8.657-11.913-12.986-17.865a55.589 55.589 0 0 1-5.376-8.749 24.8 24.8 0 0 1-1.881-5.414 42.786 42.786 0 0 1-.726-6.537 61.5 61.5 0 0 0-.584-6.231c-.272-1.67-.759-3.307-1.192-4.94a18.882 18.882 0 0 0-4.512-8.651 16.103 16.103 0 0 0-.895-.837c-.329-.291-.814.191-.483.483" transform="translate(31.489 34.72)" style="fill:#5aad74"/>
            <path data-name="패스 91803" d="m165.668 162.266-1.3-.429c3.36-10.163 7.191-18.128 11.384-23.677 3.354-4.44 6.948-7.355 10.683-8.665a11.861 11.861 0 0 1 10.046.63l-.744 1.148a10.507 10.507 0 0 0-8.891-.473c-5.569 1.975-13.764 9.038-21.181 31.466" transform="translate(72.473 55.97)" style="fill:#487058"/>
            <path data-name="패스 91804" d="M200.4 125.76c-2.541-.9-5.752 1.841-7.788 4 2.674-4.733 2.713-10.922-.534-9.372-2.432 1.161-2.766 5.368-2.679 8.335-1.454-5.238-5.8-9.641-7-6.249-.9 2.541 1.841 5.752 4 7.788-4.733-2.674-10.922-2.713-9.372.535 1.161 2.432 5.368 2.764 8.335 2.677-5.238 1.457-9.641 5.806-6.249 7.006 2.541.9 5.753-1.84 7.788-4-2.674 4.735-2.711 10.922.534 9.373 2.432-1.161 2.766-5.369 2.679-8.335 1.456 5.237 5.806 9.639 7 6.249.9-2.541-1.841-5.753-4-7.79 4.733 2.675 10.922 2.711 9.373-.534-1.162-2.432-5.369-2.767-8.336-2.679 5.24-1.454 9.641-5.8 6.249-7" transform="translate(77.91 52.218)" style="fill:#91d4e3"/>
            <path data-name="패스 91805" d="M188.334 129.006a2.063 2.063 0 1 1-2.7-1.118 2.063 2.063 0 0 1 2.7 1.118" transform="translate(81.235 55.543)" style="fill:#fff"/>
            <path data-name="패스 91806" d="M161.864 173.8c5.45-3.962 9.8-13.556 12.3-19.818 2.721-6.13-.447-2.862 4.023-26.334 2.812-14.761-3.3-33.214-6.848-37.222-1.339 43.029-14.839 28.681-22.322 47.384-3.179 7.629-6.58 8.566-6.515 22.325.068 13.955 15.536 16.538 19.363 13.668" transform="translate(62.888 39.194)" style="fill:#78bf8f"/>
            <path data-name="패스 91807" d="M172.985 102.826c1.2 15.824-4.146 18.625-10.147 28.207-9.8 15.651-8.6 31.13-20.124 43.857" transform="translate(62.982 44.628)" style="stroke:#5da379;stroke-miterlimit:10;stroke-width:.5px;fill:none"/>
            <path data-name="사각형 6711" transform="translate(115.718 225.07)" style="fill:#f8bc4d" d="M0 0h116.724v2.915H0z"/>
            <path data-name="사각형 6712" transform="translate(115.718 241.792)" style="fill:#f8bc4d" d="M0 0h116.724v2.915H0z"/>
            <path data-name="사각형 6713" transform="translate(116.54 227.986)" style="fill:#f6ecde" d="M0 0h115.085v13.804H0z"/>
            <path data-name="사각형 6714" transform="translate(120.025 231.517)" style="fill:#d8ccbe" d="M0 0h30.958v.275H0z"/>
            <path data-name="사각형 6715" transform="translate(118.543 235.025)" style="fill:#d8ccbe" d="M0 0h39.953v.273H0z"/>
            <path data-name="사각형 6716" transform="translate(127.406 238.532)" style="fill:#d8ccbe" d="M0 0h16.196v.273H0z"/>
            <path data-name="사각형 6717" transform="translate(204.949 231.517)" style="fill:#d8ccbe" d="M0 0h24.032v.275H0z"/>
            <path data-name="사각형 6718" transform="translate(179.686 235.025)" style="fill:#d8ccbe" d="M0 0h41.823v.273H0z"/>
            <path data-name="사각형 6719" transform="translate(204.789 238.532)" style="fill:#d8ccbe" d="M0 0h26.015v.273H0z"/>
            <path data-name="패스 91808" d="M185.2 129.462H85.384c-2.29 0-4.146 3.741-4.146 8.355s1.857 8.355 4.146 8.355H185.2c2.29 0 4.146-3.741 4.146-8.355s-1.857-8.355-4.146-8.355" transform="translate(36.04 56.301)" style="fill:#086eb6"/>
            <path data-name="패스 91809" d="M203.7 141.08H90.6c-3.071 0-5.559 5.058-5.559 11.3s2.488 11.3 5.559 11.3h113.1c3.071 0 5.559-5.057 5.559-11.3s-2.488-11.3-5.559-11.3" transform="translate(37.704 61.393)" style="fill:#c95e37"/>
            <path data-name="패스 91810" d="M189.628 145.7H96.967c-1.263 0-2.287 2.08-2.287 4.648S95.7 155 96.967 155h92.661c1.261 0 2.285-2.08 2.285-4.646s-1.024-4.648-2.285-4.648" transform="translate(41.931 63.419)" style="fill:#e38870"/>
            <path data-name="패스 91811" d="M97.631 151.992a5.267 5.267 0 0 0 3.325-.788 7.451 7.451 0 0 0 1.427-1.5c.306-.407.805-1.123.565-1.668a1.009 1.009 0 0 0-1.346-.371c-1.087.5-1.256 2.741-.6 3.587.488.624 1.65.362 2.235.1a5.583 5.583 0 0 0 2.19-1.716c-.106-.03-.211-.059-.318-.086-.216 3.36 4.085.134 5.455.079l-.17-.171c-.055.61.029 1.522.869 1.388a5.972 5.972 0 0 0 2.121-1.149l-.25-.1a3.133 3.133 0 0 0 2.242 1.726 7.5 7.5 0 0 0 3.435.306c.217-.036.125-.365-.091-.329a7.2 7.2 0 0 1-2.782-.178c-.912-.21-2.155-.63-2.475-1.615a.174.174 0 0 0-.252-.1c-.426.273-.83.578-1.271.828a1.94 1.94 0 0 1-.813.286c-.512.035-.42-.745-.393-1.059a.169.169 0 0 0-.171-.17 8.918 8.918 0 0 0-2.782 1.06 4.684 4.684 0 0 1-1.537.424c-.736.035-.833-.633-.794-1.223.012-.187-.227-.211-.319-.088-.731.992-2.457 2.287-3.737 1.663-.478-.234-.429-1.074-.4-1.509a2.227 2.227 0 0 1 .686-1.6.739.739 0 0 1 .862.03c.2.16.092.472.024.666a4.551 4.551 0 0 1-.981 1.418 4.706 4.706 0 0 1-3.962 1.529c-.22-.014-.219.328 0 .341" transform="translate(43.152 64.229)" style="fill:#ffe7ad"/>
            <path data-name="패스 91812" d="M145.318 150.157c1.617-.65 3.078-1.624 4.735-2.193.091-.03 1.313-.106 1.153.207-.1.194-.233.365-.331.561a4.749 4.749 0 0 0-.4 1.261c-.144.945 1.714.512 2.088.37a27.175 27.175 0 0 0 4.917-2.682l-.252-.193c-.265 1.87 1.65 2.507 3.183 2.505 1.225 0 3.632-.512 3.44-2.188-.024-.216-.367-.219-.342 0 .164 1.428-1.96 1.8-2.983 1.844-1.283.05-3.2-.417-2.969-2.071.019-.135-.109-.283-.252-.193a29.154 29.154 0 0 1-4.835 2.646c-.371.151-1.873.528-1.573-.256a8.591 8.591 0 0 1 .606-1.432c.488-.81-1.128-.824-1.539-.708-1.68.469-3.13 1.548-4.735 2.192-.2.081-.114.413.091.329" transform="translate(64.033 64.144)" style="fill:#ffe7ad"/>
            <path data-name="패스 91813" d="M182.543 101.613c-4.728-12.481-10.466-25.5-19.333-32.8-5.94-4.886-9.973-6.069-16.852-7.437-.8-.158-1.638-.3-2.507-.411 2.551 2.442 1.576 6.1.013 6.567a2.973 2.973 0 0 1-3.051-1.23s-.059 2.767-2.383 3.315-3.895-2.051-3.895-2.051-1.812 3.3-4.466 2.324c-1.6-.588-.695-3.417-.695-3.417s-3.109 1.23-4.441-.923c-.872-1.407.42-3.121 1.418-4.141a76.26 76.26 0 0 0-13.981 3.613c-9.271 3.36-17.295 17.111-23.347 27.322s-11.631 22.6-1.985 28.558c4 2.469 10.977 4.322 17.577 5.382a12.8 12.8 0 0 1 4.739-5c8.888-5.486 18.438 2.458 18.438 2.458 12.577-14.562 24.682-7.47 31.394 0a57.109 57.109 0 0 0 13.744 11.248 105.013 105.013 0 0 0-.326-12.042c10.508-1.664 14.669-8.851 9.94-21.334" transform="translate(36.297 26.283)" style="fill:#f4b7b9"/>
            <path data-name="패스 91814" d="M115.312 55.3a8.838 8.838 0 0 0 6.348-5.862s.273 4.966 4.922 5.6c0 0 .539 9.888-5.559 9.613-6.059-.275-5.711-9.356-5.711-9.356" transform="translate(50.971 21.23)" style="fill:#f8ccb9"/>
            <path data-name="패스 91815" d="M119.555 58.072a.713.713 0 0 1-.555-.242c-.584-.657-.187-2.484-.17-2.562l.266.06c-.108.489-.3 1.861.108 2.318a.469.469 0 0 0 .429.147l.029.272a.9.9 0 0 1-.106.006" transform="translate(52.45 23.786)" style="fill:#cc5a36"/>
            <path data-name="패스 91816" d="M118.24 58.194a2.053 2.053 0 0 0 2.872 0c.163-.15-.079-.391-.242-.242a1.706 1.706 0 0 1-2.389 0c-.163-.147-.406.093-.242.242" transform="translate(52.232 24.941)" style="fill:#c10e23"/>
            <path data-name="패스 91817" d="M117.978 55.3a.516.516 0 1 1-.512-.574.547.547 0 0 1 .512.574" transform="translate(51.692 23.549)" style="fill:#7e4f21"/>
            <path data-name="패스 91818" d="M121.755 55.3a.515.515 0 1 1-.512-.574.546.546 0 0 1 .512.574" transform="translate(53.347 23.549)" style="fill:#7e4f21"/>
            <path data-name="패스 91819" d="M166.506 118.441a57.16 57.16 0 0 1-13.744-11.249c-6.711-7.47-18.815-14.562-31.393 0 0 0-9.55-7.943-18.44-2.458S96.6 121.282 97.635 126.1s9.815 62.056 9.815 62.056l23.828-4.784 1.1 3.918 31.066-6.97-9.8-37.393h4.03s9.993-5.772 8.831-24.491" transform="translate(42.721 42.831)" style="fill:#ffe8ac"/>
            <path data-name="패스 91820" d="m112.165 82.449-3.262-2.7.593-.885 3.262 2.7z" transform="translate(48.164 34.128)" style="fill:#fff"/>
            <path data-name="패스 91821" d="m115.095 81.408-1.844-3.476 1.066-.539 1.844 3.475z" transform="translate(50.069 33.481)" style="fill:#fff"/>
            <path data-name="패스 91822" d="M120 81.344 119 81l1.038-3.476 1 .341z" transform="translate(52.588 33.541)" style="fill:#fff"/>
            <path data-name="패스 91823" d="m123.72 82.634-.782-.675 3.276-3.689.782.676z" transform="translate(54.314 33.866)" style="fill:#fff"/>
            <path data-name="패스 91824" d="M123.908 179.122c-.1-.5-10.082-50.463-11.765-59.344-1.713-9.039 1.609-14.414 1.752-14.639l.693.44-.347-.22.347.22c-.033.052-3.288 5.345-1.64 14.045 1.683 8.88 11.663 58.833 11.763 59.337z" transform="translate(49.369 45.642)" style="fill:#edbc45"/>
            <path data-name="패스 91825" d="M102.177 96.413c-1.264-.69-6.781-4.165-7.016-4.313l.364-.578c.058.036 5.734 3.611 6.98 4.292z" transform="translate(42.141 39.674)" style="fill:#ee8189"/>
            <path data-name="패스 91826" d="m134.7 95.766-.315-.606c.062-.033 6.258-3.279 8.615-5.7l.49.477c-2.435 2.5-8.532 5.694-8.791 5.829" transform="translate(59.332 38.769)" style="fill:#ee8189"/>
            <path data-name="사각형 6720" transform="rotate(-7.022 1323.911 -1537.955)" style="fill:#ee8189" d="M0 0h9.674v.683H0z"/>
            <path data-name="패스 91827" d="M130.816 67.661c1.563-.472 2.54-4.126-.013-6.567a50.909 50.909 0 0 0-5.668-.417 28.958 28.958 0 0 0 .112 2.982 3.042 3.042 0 0 1-2.971 1.742 3.094 3.094 0 0 1-2.974-1.982 15.339 15.339 0 0 0 .318-2.6 71.41 71.41 0 0 0-6.315.721c-1 1.018-2.29 2.733-1.418 4.141 1.333 2.153 4.443.923 4.443.923s-.908 2.829.693 3.417c2.655.972 4.466-2.324 4.466-2.324s1.572 2.6 3.895 2.05 2.383-3.314 2.383-3.314a2.975 2.975 0 0 0 3.051 1.23" transform="translate(49.345 26.156)" style="fill:#fff"/>
            <path data-name="패스 91828" d="M101.6 106.275c5.813-3.587 11.91-1.431 15.432.49l-1.532-7.11-13.9-4.444a19.22 19.22 0 0 0-1.758 12.343 14.083 14.083 0 0 1 1.758-1.279" transform="translate(44.051 41.29)" style="fill:#f8ccb9"/>
            <path data-name="패스 91829" d="M140.129 109.137c.223.249.444.49.667.731l.754-.049c.381-12.749-4.541-15.527-4.541-15.527s-9.172 2.459-10.4 3.121c-.374.2-.836 1.539-1.3 3.305 6 .462 11.192 4.385 14.818 8.42" transform="translate(55.355 40.887)" style="fill:#f8ccb9"/>
            <path data-name="사각형 6721" transform="rotate(-14.76 724.449 -653.028)" style="fill:#edbc45" d="M0 0h.819v23.173H0z"/>
            <path data-name="패스 91830" d="M107.038 72.253a76.167 76.167 0 0 1 13.981-3.611 71.035 71.035 0 0 1 6.315-.721c.043-.908.03-1.733.013-2.249-2.911-2.51-2.694-8.2-2.694-8.2A8.838 8.838 0 0 0 131 51.614s.273 4.966 4.922 5.6c0 0 .368 6.758-2.95 8.944a12.543 12.543 0 0 0-.125 1.618 50.565 50.565 0 0 1 5.67.417c.869.114 1.707.252 2.507.41 6.879 1.368 10.912 2.553 16.852 7.437a46.612 46.612 0 0 1 10.318 12.86c2.284-3.394 2.354-7.683-.288-12.132-4.464-7.518-12.211-5.33-12.621-10.57s-3.279-6.288-5.694-6.968-7.032-1.348-7.745-6.745c-.616-4.647-6.153-7.82-10.935-8-6.475-.239-9.226 3.588-10.968 7.416s-4.647 6.048-8.064 6.39A6.242 6.242 0 0 0 106 63.414c-.444 2.563-.991 4.169-7.175 6.7-4.18 1.709-5.5 7.229-4.529 13.052 3.885-5.054 8.161-9.251 12.741-10.911" transform="translate(41.629 19.054)" style="fill:#ef703c"/>
            <path data-name="패스 91831" d="M121.089 62.9" transform="translate(53.474 26.597)" style="fill:#ef703c"/>
            <path data-name="패스 91832" d="m129.261 164.712-1.122-3.925-.019.006-.447-1.6a2.317 2.317 0 0 0-.925.777c-.775 1.092-1 1.913-2.551 1.457-.956-.319-1.73-1-2.825-.775-1.23.275-1.366 1.87-2.505 2.326-1.185.41-1.776-.593-2.825-.867a1.5 1.5 0 0 0-1.7.662l.746 1.618c-1.9 1.877-5.759 3.994-8.891 5.539 1.582.377 4.108 1.588 5.473 5.439h8.02l-.89-3.069a122.917 122.917 0 0 0 6.124-1.555 9.9 9.9 0 0 1 4.338-6.031" transform="translate(46.977 69.333)" style="fill:#eba8ab"/>
            <path data-name="패스 91833" d="M113.991 162.823c1.048.275 1.64 1.276 2.825.867 1.139-.456 1.276-2.051 2.505-2.326 1.095-.226 1.868.456 2.825.775 1.549.456 1.776-.365 2.551-1.457a2.317 2.317 0 0 1 .925-.777l-.652-2.323-14.1 2.83 1.414 3.071a1.5 1.5 0 0 1 1.7-.662" transform="translate(49.028 68.625)" style="fill:#fff"/>
            <path data-name="패스 91834" d="M107.649 166.663c-2.646 1.306-4.776 2.2-4.776 2.2l.273 3.235h9.976c-1.365-3.853-3.89-5.063-5.473-5.439" transform="translate(45.521 72.604)" style="fill:#e68488"/>
            <path data-name="패스 91835" d="M123.554 163.032a9.9 9.9 0 0 0-4.338 6.031 77.47 77.47 0 0 0 5.553-1.778z" transform="translate(52.684 71.013)" style="fill:#e68488"/>
            <path data-name="패스 91836" d="m150.019 165.7-1.67-6.574a2.941 2.941 0 0 1-1.046-.069c-.956-.273-1.687-1.048-2.734-.866-1.184.227-1.732 1.549-2.825 2.049-1 .5-1.776.046-2.642-.41a2.392 2.392 0 0 0-2.915.137c-.867.683-1.322 1.822-2.6 1.458-1-.275-1.686-1.049-2.825-.683a3.2 3.2 0 0 0-1.2.88 34.43 34.43 0 0 1 1.289 4.086c.053.692-2.879 2.711-10.541 5.022a6.933 6.933 0 0 1 4.259 5.091h19.219c-1.6-7.437 3.568-9.538 6.226-10.122" transform="translate(53.165 68.881)" style="fill:#eba8ab"/>
            <path data-name="패스 91837" d="M128.159 161.551c1.138-.364 1.822.41 2.825.685 1.274.364 1.73-.775 2.6-1.458a2.39 2.39 0 0 1 2.915-.137c.866.455 1.64.91 2.642.41 1.093-.5 1.64-1.822 2.825-2.051 1.047-.181 1.776.593 2.734.866a2.935 2.935 0 0 0 1.044.069l-.915-3.6-18.564 4.164c.2.554.449 1.234.7 1.939a3.188 3.188 0 0 1 1.2-.882" transform="translate(55.772 68.076)" style="fill:#fff"/>
            <path data-name="패스 91838" d="M122.663 166.9a115.334 115.334 0 0 1-7.7 2.015l.889 3.076h11.075a6.93 6.93 0 0 0-4.259-5.091" transform="translate(50.817 72.71)" style="fill:#e68488"/>
            <path data-name="패스 91839" d="M142.957 163.407c-2.658.584-7.83 2.685-6.226 10.122h8.795z" transform="translate(60.227 71.177)" style="fill:#e68488"/>
            <path data-name="패스 91840" d="M122.912 59.7a4.267 4.267 0 0 1-2.61.669 4.807 4.807 0 0 1-3.016-1.159 21.118 21.118 0 0 1-.332 4.85 3.1 3.1 0 0 0 2.976 1.982 3.041 3.041 0 0 0 2.97-1.742 23.1 23.1 0 0 1 .013-4.6" transform="translate(51.692 25.514)" style="fill:#f8ccb9"/>
            <path data-name="패스 91841" d="M120.2 60.372a4.816 4.816 0 0 1-3.016-1.161c.013.417.023 1.04 0 1.742a4.492 4.492 0 0 0 5.5.214 12.022 12.022 0 0 1 .122-1.464 4.267 4.267 0 0 1-2.61.669" transform="translate(51.793 25.513)" style="fill:#eda493"/>
            <path data-name="패스 91842" d="M120.327 114.208c9.737-11.273 19.188-9.567 26.076-4.756l3.711-26.731H98.861l5.537 27.823c8.086-2.858 15.929 3.665 15.929 3.665" transform="translate(43.763 35.816)" style="fill:#dadbdb"/>
            <path data-name="패스 91843" d="M120.134 93.586a2.648 2.648 0 1 1-2.648-2.648 2.648 2.648 0 0 1 2.648 2.648" transform="translate(50.765 39.418)" style="fill:#fff"/>
            <path data-name="패스 91844" d="m112.138 167.572.5-.221c-.37-.831-2.071-1.983-2.9-2.508-.175.105-.354.21-.531.314.853.525 2.622 1.717 2.933 2.416" transform="translate(48.296 71.806)" style="fill:#d1787c"/>
            <path data-name="패스 91845" d="m113.784 166.338.532-.122c-.243-1.069-2.034-2.142-2.8-2.557-.16.118-.324.237-.493.358.764.391 2.566 1.471 2.76 2.321" transform="translate(49.093 71.288)" style="fill:#d1787c"/>
            <path data-name="패스 91846" d="m126.179 168.791.529-.14a5.96 5.96 0 0 0-2.544-3c-.206.083-.42.165-.639.249.361.21 2.251 1.371 2.654 2.894" transform="translate(54.572 72.16)" style="fill:#d1787c"/>
            <path data-name="패스 91847" d="m128.01 168 .545-.035c-.086-1.327-1.783-2.609-2.574-3.137-.181.092-.374.186-.574.28.784.48 2.531 1.772 2.6 2.891" transform="translate(55.397 71.801)" style="fill:#d1787c"/>
        </g>
    </g>
</svg>
