<svg data-name="그룹 18534" xmlns="http://www.w3.org/2000/svg" width="18" height="20" viewBox="0 0 18 20">
    <defs>
        <clipPath id="53i9veyzma">
            <path data-name="사각형 9808" style="stroke:#93a5b5;fill:none" d="M0 0h18v20H0z"/>
        </clipPath>
        <clipPath id="h2y94j35ub">
            <path data-name="사각형 9807" style="fill:#fff;stroke:#93a5b5" d="M0 0h18v20H0z"/>
        </clipPath>
        <clipPath id="m2wqw4acic">
            <path data-name="사각형 9806" transform="translate(4.5 1)" style="fill:#fff;stroke:#93a5b5" d="M0 0h9v9H0z"/>
        </clipPath>
    </defs>
    <g data-name="그룹 18533" style="clip-path:url(#53i9veyzma)">
        <g data-name="그룹 18532">
            <g data-name="그룹 18531" style="clip-path:url(#h2y94j35ub)">
                <g data-name="그룹 18530" style="opacity:.12;isolation:isolate">
                    <g data-name="그룹 18529">
                        <g data-name="그룹 18528" style="clip-path:url(#m2wqw4acic)">
                            <path data-name="패스 94858" d="M9 10a4.5 4.5 0 1 0-4.5-4.5A4.5 4.5 0 0 0 9 10" style="fill:#fff;stroke:#93a5b5"/>
                        </g>
                    </g>
                </g>
                <path data-name="패스 94859" d="M17 19a10.025 10.025 0 0 0-.172-2.661 4 4 0 0 0-2.667-2.667A10.025 10.025 0 0 0 11.5 13.5h-5a10.025 10.025 0 0 0-2.661.172 4 4 0 0 0-2.667 2.667A10.025 10.025 0 0 0 1 19M13.5 5.5A4.5 4.5 0 1 1 9 1a4.5 4.5 0 0 1 4.5 4.5z" style="stroke-linecap:round;stroke-linejoin:round;stroke-width:2px;fill:#fff;stroke:#93a5b5"/>
            </g>
        </g>
    </g>
</svg>
