<svg data-name="그룹 18513" xmlns="http://www.w3.org/2000/svg" width="20" height="20" viewBox="0 0 20 20">
    <defs>
        <clipPath id="yku3q5x3ca">
            <path data-name="사각형 9798" style="fill:none;stroke:#1867b3" d="M0 0h20v20H0z"/>
        </clipPath>
    </defs>
    <g data-name="그룹 18512" style="clip-path:url(#yku3q5x3ca)">
        <path data-name="패스 94854" d="M5.5 10h.01M10 10h.01m4.49 0h.01M10 19a8.991 8.991 0 1 0-8.342-5.615 2.859 2.859 0 0 1 .14.38.9.9 0 0 1 .024.219 2.309 2.309 0 0 1-.045.353L1.184 17.9a1.412 1.412 0 0 0-.035.694.494.494 0 0 0 .262.262 1.412 1.412 0 0 0 .694-.035l3.558-.593a2.31 2.31 0 0 1 .353-.045.9.9 0 0 1 .219.024 2.808 2.808 0 0 1 .38.14A8.985 8.985 0 0 0 10 19zm-4-9a.5.5 0 1 1-.5-.5.5.5 0 0 1 .5.5zm4.5 0a.5.5 0 1 1-.5-.5.5.5 0 0 1 .5.5zm4.5 0a.5.5 0 1 1-.5-.5.5.5 0 0 1 .5.5z" style="stroke-linecap:round;stroke-linejoin:round;stroke-width:2px;fill:none;stroke:#1867b3"/>
    </g>
</svg>
