<svg xmlns="http://www.w3.org/2000/svg" width="24" height="24" viewBox="0 0 24 24">
    <g data-name="그룹 214">
        <path data-name="사각형 115" style="fill:none" d="M0 0h24v24H0z"/>
        <path d="M6 19h3v-6h6v6h3v-9l-6-4.5L6 10zm0 2a2.006 2.006 0 0 1-2-2v-9a1.982 1.982 0 0 1 .213-.9 1.913 1.913 0 0 1 .587-.7l6-4.5a2.11 2.11 0 0 1 .575-.3 2 2 0 0 1 1.25 0 2.11 2.11 0 0 1 .575.3l6 4.5a1.922 1.922 0 0 1 .588.7A1.99 1.99 0 0 1 20 10v9a2 2 0 0 1-2 2h-5v-6h-2v6zm6-8.75z" transform="translate(0 -.5)" style="fill:#99a5b2"/>
    </g>
</svg>
