<svg xmlns="http://www.w3.org/2000/svg" width="20" height="20" viewBox="0 0 20 20">
    <path data-name="사각형 6618" style="fill:none" d="M0 0h20v20H0z"/>
    <path data-name="패스 91696" d="m47.053 34.953-3.711-1.591a1.264 1.264 0 0 0-1.2.111L40.155 34.8a6.065 6.065 0 0 1-2.79-2.777L38.683 30a1.265 1.265 0 0 0 .1-1.194L37.2 25.1a1.27 1.27 0 0 0-1.32-.759A4.443 4.443 0 0 0 32 28.739a11.423 11.423 0 0 0 11.41 11.41 4.443 4.443 0 0 0 4.4-3.876 1.271 1.271 0 0 0-.757-1.32z" transform="translate(-29.464 -22.4)" style="fill:#f58220"/>
</svg>
