<svg xmlns="http://www.w3.org/2000/svg" width="20" height="20.667" viewBox="0 0 20 20.667">
    <defs>
        <clipPath id="wulkkr91ha">
            <path data-name="사각형 10295" style="fill:none;stroke:#0069ee" d="M0 0h20v20.667H0z"/>
        </clipPath>
    </defs>
    <g data-name="그룹 19341">
        <g data-name="그룹 19340" style="clip-path:url(#wulkkr91ha)">
            <path data-name="패스 95567" d="M10 12V8.5M10 5h.01M7.9 17.2l1.46 1.947c.217.289.326.434.459.486a.5.5 0 0 0 .362 0c.133-.052.242-.2.459-.486L12.1 17.2a4.372 4.372 0 0 1 .619-.736 2 2 0 0 1 .822-.41A4.306 4.306 0 0 1 14.5 16a7.491 7.491 0 0 0 2.648-.228 3.005 3.005 0 0 0 1.624-1.624A7.491 7.491 0 0 0 19 11.5V5.8a7.454 7.454 0 0 0-.327-3.162 3 3 0 0 0-1.311-1.311A7.454 7.454 0 0 0 14.2 1H5.8a7.454 7.454 0 0 0-3.162.327 3.009 3.009 0 0 0-1.311 1.311A7.454 7.454 0 0 0 1 5.8v5.7a7.491 7.491 0 0 0 .228 2.648 3.005 3.005 0 0 0 1.624 1.624A7.491 7.491 0 0 0 5.5 16a4.322 4.322 0 0 1 .96.054 2.011 2.011 0 0 1 .822.41 4.428 4.428 0 0 1 .618.736z" style="stroke-linecap:round;stroke-linejoin:round;stroke-width:2px;fill:none;stroke:#0069ee"/>
        </g>
    </g>
</svg>
