<svg xmlns="http://www.w3.org/2000/svg" width="24.571" height="22.943" viewBox="0 0 24.571 22.943">
    <g data-name="그룹 19339">
        <g data-name="그룹 19337">
            <path data-name="패스 95566" d="M8.042 0 0 8.042" transform="rotate(45 .795 21.67)" style="stroke:#1767b3;stroke-linecap:round;stroke-width:1.5px;fill:none"/>
            <path data-name="패스 95565" d="M1.794 7.4c-.456-.178-.684-.266-.751-.394a.389.389 0 0 1 0-.354c.067-.128.294-.217.75-.394l12.935-5.049c.411-.161.617-.241.748-.2a.381.381 0 0 1 .242.241c.044.132-.036.338-.2.749l-5.043 12.939c-.178.456-.267.683-.4.75a.385.385 0 0 1-.354 0c-.127-.067-.217-.295-.394-.751L7.319 9.761a.812.812 0 0 0-.082-.178.369.369 0 0 0-.09-.09.812.812 0 0 0-.178-.082z" transform="rotate(45 6.177 13.687)" style="stroke-linejoin:round;stroke:#1767b3;stroke-linecap:round;stroke-width:1.5px;fill:none"/>
        </g>
        <path data-name="사각형 10294" transform="translate(4.571 1.556)" style="fill:none" d="M0 0h20v20H0z"/>
    </g>
</svg>
